<?xml version="1.0" encoding="UTF-8"?>
<mxfile host="app.diagrams.net" modified="2025-09-20T00:29:15.093095" version="22.1.11">
  <diagram name="Network Architecture" id="diagram_0">
    <mxGraphModel dx="2500" dy="1600" grid="1" gridSize="10" guides="1" tooltips="1" connect="1" arrows="1" fold="1" page="1" pageScale="1" pageWidth="1400" pageHeight="1000">
      <root>
        <mxCell id="0"/>
        <mxCell id="1" parent="0"/>
        <mxCell id="title_1001" value="BMC NETWORK ARCHITECTURE - AWS SENIOR LEVEL" style="text;html=1;strokeColor=none;fillColor=none;align=center;verticalAlign=middle;whiteSpace=wrap;rounded=0;fontSize=18;fontStyle=1;fontColor=#1976D2;" vertex="1" parent="1">
          <mxGeometry x="400" y="20" width="600" height="30" as="geometry"/>
        </mxCell>
<mxCell id="aws_cloud_1002" value="AWS Cloud - us-east-1" style="fillColor=#E3F2FD;strokeColor=#1976D2;dashed=1;verticalAlign=top;fontStyle=1;fontSize=14;fontColor=#1976D2;" vertex="1" parent="1">
          <mxGeometry x="50" y="80" width="1200" height="800" as="geometry"/>
        </mxCell>
<mxCell id="cloudfront_1003" value="CloudFront CDN\n200+ edge locations\nSSL/TLS 1.3" style="shape=mxgraph.aws4.cloudfront;labelPosition=bottom;verticalLabelPosition=top;align=center;verticalAlign=bottom;fillColor=#E8F5E8;strokeColor=#4CAF50;fontColor=#2E7D32;" vertex="1" parent="1">
          <mxGeometry x="150" y="150" width="78" height="78" as="geometry"/>
        </mxCell>
<mxCell id="waf_1004" value="AWS WAF\nDDoS protection\nRate limiting: 2K/s" style="shape=mxgraph.aws4.waf;labelPosition=bottom;verticalLabelPosition=top;align=center;verticalAlign=bottom;fillColor=#E8F5E8;strokeColor=#4CAF50;fontColor=#2E7D32;" vertex="1" parent="1">
          <mxGeometry x="350" y="150" width="78" height="78" as="geometry"/>
        </mxCell>
<mxCell id="api_gw_1005" value="API Gateway\n10K req/s throttle\nCaching: 300s TTL" style="shape=mxgraph.aws4.api_gateway;labelPosition=bottom;verticalLabelPosition=top;align=center;verticalAlign=bottom;fillColor=#E8F5E8;strokeColor=#4CAF50;fontColor=#2E7D32;" vertex="1" parent="1">
          <mxGeometry x="550" y="150" width="78" height="78" as="geometry"/>
        </mxCell>
<mxCell id="vpc_1006" value="VPC 10.0.0.0/16 - Multi-AZ" style="fillColor=#F5F5F5;strokeColor=#666666;dashed=1;verticalAlign=top;fontStyle=1;fontSize=14;fontColor=#666666;" vertex="1" parent="1">
          <mxGeometry x="100" y="300" width="1000" height="500" as="geometry"/>
        </mxCell>
<mxCell id="az1a_1007" value="AZ us-east-1a" style="fillColor=#E8F5E8;strokeColor=#4CAF50;dashed=1;verticalAlign=top;fontStyle=1;fontSize=14;fontColor=#4CAF50;" vertex="1" parent="1">
          <mxGeometry x="150" y="350" width="400" height="200" as="geometry"/>
        </mxCell>
<mxCell id="invoice_1008" value="Invoice Service\n2vCPU/4GB\nBlue/Green deploy" style="shape=mxgraph.aws4.fargate;labelPosition=bottom;verticalLabelPosition=top;align=center;verticalAlign=bottom;fillColor=#E8F5E8;strokeColor=#4CAF50;fontColor=#2E7D32;" vertex="1" parent="1">
          <mxGeometry x="200" y="400" width="78" height="78" as="geometry"/>
        </mxCell>
<mxCell id="product_1009" value="Product Service\n4vCPU/8GB\n60M products" style="shape=mxgraph.aws4.fargate;labelPosition=bottom;verticalLabelPosition=top;align=center;verticalAlign=bottom;fillColor=#E8F5E8;strokeColor=#4CAF50;fontColor=#2E7D32;" vertex="1" parent="1">
          <mxGeometry x="350" y="400" width="78" height="78" as="geometry"/>
        </mxCell>
<mxCell id="az1b_1010" value="AZ us-east-1b" style="fillColor=#FFF3E0;strokeColor=#FF9800;dashed=1;verticalAlign=top;fontStyle=1;fontSize=14;fontColor=#FF9800;" vertex="1" parent="1">
          <mxGeometry x="600" y="350" width="400" height="200" as="geometry"/>
        </mxCell>
<mxCell id="ocr_1011" value="OCR Service\n4vCPU/8GB\nTextract integration" style="shape=mxgraph.aws4.fargate;labelPosition=bottom;verticalLabelPosition=top;align=center;verticalAlign=bottom;fillColor=#E8F5E8;strokeColor=#4CAF50;fontColor=#2E7D32;" vertex="1" parent="1">
          <mxGeometry x="650" y="400" width="78" height="78" as="geometry"/>
        </mxCell>
<mxCell id="commission_1012" value="Commission Service\n2vCPU/4GB\nDIAN compliance" style="shape=mxgraph.aws4.fargate;labelPosition=bottom;verticalLabelPosition=top;align=center;verticalAlign=bottom;fillColor=#E8F5E8;strokeColor=#4CAF50;fontColor=#2E7D32;" vertex="1" parent="1">
          <mxGeometry x="800" y="400" width="78" height="78" as="geometry"/>
        </mxCell>
<mxCell id="rds_primary_1013" value="RDS Primary\nPostgreSQL 14\ndb.r6g.2xlarge\n35-day backup" style="shape=mxgraph.aws4.rds;labelPosition=bottom;verticalLabelPosition=top;align=center;verticalAlign=bottom;fillColor=#E8F5E8;strokeColor=#4CAF50;fontColor=#2E7D32;" vertex="1" parent="1">
          <mxGeometry x="300" y="600" width="78" height="78" as="geometry"/>
        </mxCell>
<mxCell id="rds_replica_1014" value="Read Replica\nCross-AZ\nPromotion ready" style="shape=mxgraph.aws4.rds;labelPosition=bottom;verticalLabelPosition=top;align=center;verticalAlign=bottom;fillColor=#E8F5E8;strokeColor=#4CAF50;fontColor=#2E7D32;" vertex="1" parent="1">
          <mxGeometry x="500" y="600" width="78" height="78" as="geometry"/>
        </mxCell>
<mxCell id="s3_docs_1015" value="S3 Documents\nIntelligent Tiering\n90d â†’ Glacier" style="shape=mxgraph.aws4.s3;labelPosition=bottom;verticalLabelPosition=top;align=center;verticalAlign=bottom;fillColor=#E8F5E8;strokeColor=#4CAF50;fontColor=#2E7D32;" vertex="1" parent="1">
          <mxGeometry x="750" y="150" width="78" height="78" as="geometry"/>
        </mxCell>
<mxCell id="redis_1016" value="ElastiCache Redis\n6 nodes (3 shards)\nMulti-AZ" style="shape=mxgraph.aws4.elasticache;labelPosition=bottom;verticalLabelPosition=top;align=center;verticalAlign=bottom;fillColor=#E8F5E8;strokeColor=#4CAF50;fontColor=#2E7D32;" vertex="1" parent="1">
          <mxGeometry x="700" y="600" width="78" height="78" as="geometry"/>
        </mxCell>
<mxCell id="conn_1017" style="edgeStyle=orthogonalEdgeStyle;rounded=0;orthogonalLoop=1;jettySize=auto;html=1;strokeColor=#1976D2;strokeWidth=2;fontColor=#1976D2;" edge="1" parent="1" source="cloudfront_1003" target="waf_1004">
          <mxGeometry relative="1" as="geometry">
            <mxPoint x="0" y="-10" as="offset"/>
            <Array as="points"/>
          </mxGeometry>
        </mxCell>
        <mxCell id="label_1018" value="HTTPS Traffic" style="edgeLabel;html=1;align=center;verticalAlign=middle;resizable=0;points=[];fontSize=10;fontColor=#1976D2;" vertex="1" connectable="0" parent="conn_1017">
          <mxGeometry x="-0.1" y="1" relative="1" as="geometry">
            <mxPoint as="offset"/>
          </mxGeometry>
        </mxCell>
<mxCell id="conn_1019" style="edgeStyle=orthogonalEdgeStyle;rounded=0;orthogonalLoop=1;jettySize=auto;html=1;strokeColor=#1976D2;strokeWidth=2;fontColor=#1976D2;" edge="1" parent="1" source="waf_1004" target="api_gw_1005">
          <mxGeometry relative="1" as="geometry">
            <mxPoint x="0" y="-10" as="offset"/>
            <Array as="points"/>
          </mxGeometry>
        </mxCell>
        <mxCell id="label_1020" value="Filtered Requests" style="edgeLabel;html=1;align=center;verticalAlign=middle;resizable=0;points=[];fontSize=10;fontColor=#1976D2;" vertex="1" connectable="0" parent="conn_1019">
          <mxGeometry x="-0.1" y="1" relative="1" as="geometry">
            <mxPoint as="offset"/>
          </mxGeometry>
        </mxCell>
<mxCell id="conn_1021" style="edgeStyle=orthogonalEdgeStyle;rounded=0;orthogonalLoop=1;jettySize=auto;html=1;strokeColor=#4CAF50;strokeWidth=2;fontColor=#4CAF50;" edge="1" parent="1" source="api_gw_1005" target="invoice_1008">
          <mxGeometry relative="1" as="geometry">
            <mxPoint x="0" y="-10" as="offset"/>
            <Array as="points"/>
          </mxGeometry>
        </mxCell>
        <mxCell id="label_1022" value="Route /invoices" style="edgeLabel;html=1;align=center;verticalAlign=middle;resizable=0;points=[];fontSize=10;fontColor=#4CAF50;" vertex="1" connectable="0" parent="conn_1021">
          <mxGeometry x="-0.1" y="1" relative="1" as="geometry">
            <mxPoint as="offset"/>
          </mxGeometry>
        </mxCell>
<mxCell id="conn_1023" style="edgeStyle=orthogonalEdgeStyle;rounded=0;orthogonalLoop=1;jettySize=auto;html=1;strokeColor=#4CAF50;strokeWidth=2;fontColor=#4CAF50;" edge="1" parent="1" source="api_gw_1005" target="product_1009">
          <mxGeometry relative="1" as="geometry">
            <mxPoint x="0" y="-10" as="offset"/>
            <Array as="points"/>
          </mxGeometry>
        </mxCell>
        <mxCell id="label_1024" value="Route /products" style="edgeLabel;html=1;align=center;verticalAlign=middle;resizable=0;points=[];fontSize=10;fontColor=#4CAF50;" vertex="1" connectable="0" parent="conn_1023">
          <mxGeometry x="-0.1" y="1" relative="1" as="geometry">
            <mxPoint as="offset"/>
          </mxGeometry>
        </mxCell>
<mxCell id="conn_1025" style="edgeStyle=orthogonalEdgeStyle;rounded=0;orthogonalLoop=1;jettySize=auto;html=1;strokeColor=#4CAF50;strokeWidth=2;fontColor=#4CAF50;" edge="1" parent="1" source="api_gw_1005" target="ocr_1011">
          <mxGeometry relative="1" as="geometry">
            <mxPoint x="0" y="-10" as="offset"/>
            <Array as="points"/>
          </mxGeometry>
        </mxCell>
        <mxCell id="label_1026" value="Route /ocr" style="edgeLabel;html=1;align=center;verticalAlign=middle;resizable=0;points=[];fontSize=10;fontColor=#4CAF50;" vertex="1" connectable="0" parent="conn_1025">
          <mxGeometry x="-0.1" y="1" relative="1" as="geometry">
            <mxPoint as="offset"/>
          </mxGeometry>
        </mxCell>
<mxCell id="conn_1027" style="edgeStyle=orthogonalEdgeStyle;rounded=0;orthogonalLoop=1;jettySize=auto;html=1;strokeColor=#4CAF50;strokeWidth=2;fontColor=#4CAF50;" edge="1" parent="1" source="api_gw_1005" target="commission_1012">
          <mxGeometry relative="1" as="geometry">
            <mxPoint x="0" y="-10" as="offset"/>
            <Array as="points"/>
          </mxGeometry>
        </mxCell>
        <mxCell id="label_1028" value="Route /commissions" style="edgeLabel;html=1;align=center;verticalAlign=middle;resizable=0;points=[];fontSize=10;fontColor=#4CAF50;" vertex="1" connectable="0" parent="conn_1027">
          <mxGeometry x="-0.1" y="1" relative="1" as="geometry">
            <mxPoint as="offset"/>
          </mxGeometry>
        </mxCell>
<mxCell id="conn_1029" style="edgeStyle=orthogonalEdgeStyle;rounded=0;orthogonalLoop=1;jettySize=auto;html=1;strokeColor=#2196F3;strokeWidth=2;fontColor=#2196F3;" edge="1" parent="1" source="invoice_1008" target="rds_primary_1013">
          <mxGeometry relative="1" as="geometry">
            <mxPoint x="0" y="-10" as="offset"/>
            <Array as="points"/>
          </mxGeometry>
        </mxCell>
        <mxCell id="label_1030" value="Write Operations" style="edgeLabel;html=1;align=center;verticalAlign=middle;resizable=0;points=[];fontSize=10;fontColor=#2196F3;" vertex="1" connectable="0" parent="conn_1029">
          <mxGeometry x="-0.1" y="1" relative="1" as="geometry">
            <mxPoint as="offset"/>
          </mxGeometry>
        </mxCell>
<mxCell id="conn_1031" style="edgeStyle=orthogonalEdgeStyle;rounded=0;orthogonalLoop=1;jettySize=auto;html=1;strokeColor=#2196F3;strokeWidth=2;fontColor=#2196F3;" edge="1" parent="1" source="product_1009" target="rds_primary_1013">
          <mxGeometry relative="1" as="geometry">
            <mxPoint x="0" y="-10" as="offset"/>
            <Array as="points"/>
          </mxGeometry>
        </mxCell>
        <mxCell id="label_1032" value="Write Operations" style="edgeLabel;html=1;align=center;verticalAlign=middle;resizable=0;points=[];fontSize=10;fontColor=#2196F3;" vertex="1" connectable="0" parent="conn_1031">
          <mxGeometry x="-0.1" y="1" relative="1" as="geometry">
            <mxPoint as="offset"/>
          </mxGeometry>
        </mxCell>
<mxCell id="conn_1033" style="edgeStyle=orthogonalEdgeStyle;rounded=0;orthogonalLoop=1;jettySize=auto;html=1;strokeColor=#FF9800;strokeWidth=2;fontColor=#FF9800;" edge="1" parent="1" source="product_1009" target="redis_1016">
          <mxGeometry relative="1" as="geometry">
            <mxPoint x="0" y="-10" as="offset"/>
            <Array as="points"/>
          </mxGeometry>
        </mxCell>
        <mxCell id="label_1034" value="Cache Lookup" style="edgeLabel;html=1;align=center;verticalAlign=middle;resizable=0;points=[];fontSize=10;fontColor=#FF9800;" vertex="1" connectable="0" parent="conn_1033">
          <mxGeometry x="-0.1" y="1" relative="1" as="geometry">
            <mxPoint as="offset"/>
          </mxGeometry>
        </mxCell>
<mxCell id="conn_1035" style="edgeStyle=orthogonalEdgeStyle;rounded=0;orthogonalLoop=1;jettySize=auto;html=1;strokeColor=#9C27B0;strokeWidth=2;fontColor=#9C27B0;" edge="1" parent="1" source="rds_primary_1013" target="rds_replica_1014">
          <mxGeometry relative="1" as="geometry">
            <mxPoint x="0" y="-10" as="offset"/>
            <Array as="points"/>
          </mxGeometry>
        </mxCell>
        <mxCell id="label_1036" value="Replication" style="edgeLabel;html=1;align=center;verticalAlign=middle;resizable=0;points=[];fontSize=10;fontColor=#9C27B0;" vertex="1" connectable="0" parent="conn_1035">
          <mxGeometry x="-0.1" y="1" relative="1" as="geometry">
            <mxPoint as="offset"/>
          </mxGeometry>
        </mxCell>
      </root>
    </mxGraphModel>
  </diagram></mxfile>